<svg width="128" height="128" viewBox="0 0 128 128" fill="none" xmlns="http://www.w3.org/2000/svg">
<rect width="128" height="128" rx="16" fill="white"/>
<path d="M97.6685 112C97.17 112 96.6627 111.91 96.1692 111.719C88.5176 108.766 84.2736 105.139 83.1941 100.632C81.9426 95.4066 85.5402 91.405 86.8946 89.8986C86.9924 89.7895 87.0791 89.6958 87.1465 89.6158C87.4214 89.236 87.7587 88.9049 88.1444 88.6367C98.0104 81.7806 103.669 71.4115 103.669 60.1873C103.669 40.4153 85.8733 24.3296 63.9994 24.3296C42.1254 24.3296 24.3296 40.4153 24.3296 60.1877C24.3296 79.9602 42.1254 96.0459 63.9994 96.0459C66.2992 96.0459 68.1642 97.9109 68.1642 100.211C68.1642 102.51 66.2992 104.375 63.9994 104.375C37.5325 104.375 16 84.5531 16 60.1877C16 35.8224 37.5325 16 63.9994 16C90.4663 16 111.999 35.8224 111.999 60.1877C111.999 73.9899 105.223 86.6934 93.3875 95.1321C93.2921 95.2417 93.1922 95.352 93.0884 95.4674C92.4821 96.1421 91.0619 97.7218 91.2943 98.6918C91.5637 99.8188 93.7881 101.872 99.1686 103.949C101.314 104.777 102.383 107.188 101.554 109.334C100.917 110.986 99.3394 112 97.6685 112Z" fill="black"/>
<path d="M82.4224 55.3028H45.9999C43.6997 55.3028 41.8351 53.4383 41.8351 51.138C41.8351 48.8378 43.6997 46.9732 45.9999 46.9732H82.4228C84.7226 46.9732 86.5876 48.8378 86.5876 51.138C86.5876 53.4383 84.7226 55.3028 82.4224 55.3028Z" fill="black"/>
<path d="M82.4224 71.3407H45.9999C43.6997 71.3407 41.8351 69.4757 41.8351 67.1759C41.8351 64.8756 43.6997 63.0111 45.9999 63.0111H82.4228C84.7226 63.0111 86.5876 64.8756 86.5876 67.1759C86.5872 69.4757 84.7226 71.3407 82.4224 71.3407Z" fill="black"/>
</svg>
